<svg width="800" height="800" viewBox="0 0 800 800" fill="none" xmlns="http://www.w3.org/2000/svg">
<rect width="816" height="812" fill="none"/>
<path d="M303.5 405.5L232 477L277 520L347.5 449.5L303.5 405.5Z" fill="#2F3542" stroke="#545B6B" stroke-width="1.5"/>
<path d="M290 165L248 200L296 248L334 217L290 165Z" fill="#2F3542" stroke="#545B6B" stroke-width="1.5"/>
<path d="M199.5 302.5L146 249L108 283L162 340L199.5 302.5Z" fill="#2F3542" stroke="#545B6B" stroke-width="1.5"/>
<path d="M277 571.5L229 612.5L301 695.5L351.5 652L277 571.5Z" fill="#2F3542" stroke="#545B6B" stroke-width="1.5"/>
<path d="M186 765.5L133.5 709.5L201.5 647L209.5 651L222.5 641L244 668L235.5 681.5L255.5 704L232.5 726.5L201.5 697.5L174 722.5L198.5 752.5L186 765.5Z" fill="#2F3542" stroke="#545B6B" stroke-width="1.5"/>
<path d="M324.5 525.5L334 516L355 536.5L341 545V553L355 571H364L380.5 592.5L370 604H360.5L320.5 557L324.5 525.5Z" fill="#2F3542" stroke="#545B6B" stroke-width="1.5"/>
<path d="M150 636.5L125.5 610L86 643.5L114 671.5L150 636.5Z" fill="#2F3542" stroke="#545B6B" stroke-width="1.5"/>
<path d="M215.5 436.5L206 425L227 409L236.5 416.5L245.5 409L227 388.5L187.5 425L206 444.5L215.5 436.5Z" fill="#2F3542" stroke="#545B6B" stroke-width="1.5"/>
<path d="M315.5 370.5L283.5 337.5L324.5 301L355 337.5L315.5 370.5Z" fill="#2F3542" stroke="#545B6B" stroke-width="1.5"/>
<path d="M363 320L334.5 292L370 262.5L394.5 292L363 320Z" fill="#2F3542" stroke="#545B6B" stroke-width="1.5"/>
<path d="M277 345L252.5 368L267 384.5L294 362L277 345Z" fill="#2F3542" stroke="#545B6B" stroke-width="1.5"/>
<path d="M342.5 408L356.5 396L367 408L352 420L342.5 408Z" fill="#2F3542" stroke="#545B6B" stroke-width="1.5"/>
<path d="M171 337.5L216 298.5L227 310.5L191 340.5L197 350.5L238 315L252.5 333.5L204.5 378.5L197 371.5L173.5 392L179 400.5L173.5 405.5L145 368L173.5 345L171 337.5Z" fill="#2F3542" stroke="#545B6B" stroke-width="1.5"/>
<path d="M259.5 321.5L244 303L252.5 294.5L271 315L259.5 321.5Z" fill="#2F3542" stroke="#545B6B" stroke-width="1.5"/>
<path d="M277 345L252.5 368L267 384.5L294 362L277 345Z" fill="#2F3542" stroke="#545B6B" stroke-width="1.5"/>
<path d="M342.5 408L356.5 396L367 408L352 420L342.5 408Z" fill="#2F3542" stroke="#545B6B" stroke-width="1.5"/>
<path d="M171 337.5L216 298.5L227 310.5L191 340.5L197 350.5L238 315L252.5 333.5L204.5 378.5L197 371.5L173.5 392L179 400.5L173.5 405.5L145 368L173.5 345L171 337.5Z" fill="#2F3542" stroke="#545B6B" stroke-width="1.5"/>
<path d="M259.5 321.5L244 303L252.5 294.5L271 315L259.5 321.5Z" fill="#2F3542" stroke="#545B6B" stroke-width="1.5"/>
<path d="M253.5 285L238.5 296.5L195.5 251.5L187.5 258L170 238L187.5 221.5L207 245L217 241L253.5 285Z" fill="#2F3542" stroke="#545B6B" stroke-width="1.5"/>
<path d="M329.5 271L311 251L318.5 245L323.5 248L329.5 240.5L336.5 245L349 233L360.5 245L329.5 271Z" fill="#2F3542" stroke="#545B6B" stroke-width="1.5"/>
<path d="M414.5 329.5L395.5 307.5L387.5 313L439 366.5L482 325L432.5 263.5L424 272.5L447.5 304L414.5 329.5Z" fill="#2F3542" stroke="#545B6B" stroke-width="1.5"/>
<path d="M466.5 244.5L451 228L498.5 193H519.5L551 228V258.5L510.5 284L494.5 272.5L503 258.5L482 234L466.5 244.5Z" fill="#2F3542" stroke="#545B6B" stroke-width="1.5"/>
<path d="M414.5 329.5L395.5 307.5L387.5 313L439 366.5L482 325L432.5 263.5L424 272.5L447.5 304L414.5 329.5Z" fill="#2F3542" stroke="#545B6B" stroke-width="1.5"/>
<path d="M466.5 244.5L451 228L498.5 193H519.5L551 228V258.5L510.5 284L494.5 272.5L503 258.5L482 234L466.5 244.5Z" fill="#2F3542" stroke="#545B6B" stroke-width="1.5"/>
<path d="M379.5 478.5L353.5 502.5L370 513L384 500L399 516.5L379.5 536.5L392.5 543.5L418.5 519.5L379.5 478.5Z" fill="#2F3542" stroke="#545B6B" stroke-width="1.5"/>
<path d="M415 457L423 452.5L443 476L428.5 489L415 470.5V457Z" fill="#2F3542" stroke="#545B6B" stroke-width="1.5"/>
<path d="M452 449L440 435.5L462.5 419L472.5 430L452 449Z" fill="#2F3542" stroke="#545B6B" stroke-width="1.5"/>
<path d="M496.5 416.5L479 398.5L486.5 390.5L504.5 409L496.5 416.5Z" fill="#2F3542" stroke="#545B6B" stroke-width="1.5"/>
<path d="M518.5 350L501 365L510 377L518.5 367.5L524.5 374L542 357.5L534.5 350L524.5 357.5L518.5 350Z" fill="#2F3542" stroke="#545B6B" stroke-width="1.5"/>
<path d="M566.5 346L551 330L566.5 314.5L582.5 330L566.5 346Z" fill="#2F3542" stroke="#545B6B" stroke-width="1.5"/>
<path d="M591 326.5L566.5 301.5L591 287.5L608 308.5L591 326.5Z" fill="#2F3542" stroke="#545B6B" stroke-width="1.5"/>
<path d="M614 295L601 280L625 258L639.5 271L614 295Z" fill="#2F3542" stroke="#545B6B" stroke-width="1.5"/>
<path d="M415 457L423 452.5L443 476L428.5 489L415 470.5V457Z" fill="#2F3542" stroke="#545B6B" stroke-width="1.5"/>
<path d="M452 449L440 435.5L462.5 419L472.5 430L452 449Z" fill="#2F3542" stroke="#545B6B" stroke-width="1.5"/>
<path d="M496.5 416.5L479 398.5L486.5 390.5L504.5 409L496.5 416.5Z" fill="#2F3542" stroke="#545B6B" stroke-width="1.5"/>
<path d="M518.5 350L501 365L510 377L518.5 367.5L524.5 374L542 357.5L534.5 350L524.5 357.5L518.5 350Z" fill="#2F3542" stroke="#545B6B" stroke-width="1.5"/>
<path d="M566.5 346L551 330L566.5 314.5L582.5 330L566.5 346Z" fill="#2F3542" stroke="#545B6B" stroke-width="1.5"/>
<path d="M591 326.5L566.5 301.5L591 287.5L608 308.5L591 326.5Z" fill="#2F3542" stroke="#545B6B" stroke-width="1.5"/>
<path d="M614 295L601 280L625 258L639.5 271L614 295Z" fill="#2F3542" stroke="#545B6B" stroke-width="1.5"/>
<path d="M118 408.5L97 426L108.5 437L118 429.5L158.5 472.5L146.5 484.5L158.5 495.5L179 475L118 408.5Z" fill="#2F3542" stroke="#545B6B" stroke-width="1.5"/>
<path d="M198 575.5L169 542L154 551L188 585.5L198 575.5Z" fill="#2F3542" stroke="#545B6B" stroke-width="1.5"/>
<path d="M172 539L163 530.5L185 508L194 518.5L172 539Z" fill="#2F3542" stroke="#545B6B" stroke-width="1.5"/>
<path d="M205.5 518.5L198 524L216.5 546L225 539L205.5 518.5Z" fill="#2F3542" stroke="#545B6B" stroke-width="1.5"/>
<path d="M220 551L198 567.5L205.5 579.5L230.5 560L220 551Z" fill="#2F3542" stroke="#545B6B" stroke-width="1.5"/>
<path d="M67 366.5L56 375L88.5 412L98.5 402L67 366.5Z" fill="#2F3542" stroke="#545B6B" stroke-width="1.5"/>
<path d="M56.5 488.5L66.5 473.5L107 494L97.5 509.5L56.5 488.5Z" fill="#2F3542" stroke="#545B6B" stroke-width="1.5"/>
<path d="M3 464.5L13.5 449L52.5 473.5L43.5 488.5L3 464.5Z" fill="#2F3542" stroke="#545B6B" stroke-width="1.5"/>
<path d="M77.5 263.5L38 219L41 189L82 156.5L118 197.5L126 225L77.5 263.5Z" fill="#2F3542" stroke="#545B6B" stroke-width="1.5"/>
</svg>
