<svg width="900" height="900" viewBox="0 0 900 900" fill="none" xmlns="http://www.w3.org/2000/svg">
  <!-- Add the group with GPS coordinates -->
  <g id="Buildings" 
     data-top-lat="38.0407552"
     data-bottom-lat="38.0322284"
     data-left-lon="-84.5081140"
     data-right-lon="-84.4972665">
    <path d="M358.5 475.5L287 547L332 590L402.5 519.5L358.5 475.5Z" fill="#2D3436" stroke="white"/>
    <path d="M345 235L303 270L351 318L389 287L345 235Z" fill="#2D3436" stroke="white"/>
    <path d="M254.5 372.5L201 319L163 353L217 410L254.5 372.5Z" fill="#2D3436" stroke="white"/>
    <path d="M332 641.5L284 682.5L356 765.5L406.5 722L332 641.5Z" fill="#2D3436" stroke="white"/>
    <path d="M241 835.5L188.5 779.5L256.5 717L264.5 721L277.5 711L299 738L290.5 751.5L310.5 774L287.5 796.5L256.5 767.5L229 792.5L253.5 822.5L241 835.5Z" fill="#2D3436" stroke="white"/>
    <path d="M379.5 595.5L389 586L410 606.5L396 615V623L410 641H419L435.5 662.5L425 674H415.5L375.5 627L379.5 595.5Z" fill="#2D3436" stroke="white"/>
    <path d="M205 706.5L180.5 680L141 713.5L169 741.5L205 706.5Z" fill="#2D3436" stroke="white"/>
    <path d="M270.5 506.5L261 495L282 479L291.5 486.5L300.5 479L282 458.5L242.5 495L261 514.5L270.5 506.5Z" fill="#2D3436" stroke="white"/>
    <path d="M370.5 440.5L338.5 407.5L379.5 371L410 407.5L370.5 440.5Z" fill="#2D3436" stroke="white"/>
    <path d="M418 390L389.5 362L425 332.5L449.5 362L418 390Z" fill="#2D3436" stroke="white"/>
    <path d="M332 415L307.5 438L322 454.5L349 432L332 415Z" fill="#2D3436"/>
    <path d="M397.5 478L411.5 466L422 478L407 490L397.5 478Z" fill="#2D3436"/>
    <path d="M226 407.5L271 368.5L282 380.5L246 410.5L252 420.5L293 385L307.5 403.5L259.5 448.5L252 441.5L228.5 462L234 470.5L228.5 475.5L200 438L228.5 415L226 407.5Z" fill="#2D3436"/>
    <path d="M314.5 391.5L299 373L307.5 364.5L326 385L314.5 391.5Z" fill="#2D3436"/>
    <path d="M332 415L307.5 438L322 454.5L349 432L332 415Z" stroke="white"/>
    <path d="M397.5 478L411.5 466L422 478L407 490L397.5 478Z" stroke="white"/>
    <path d="M226 407.5L271 368.5L282 380.5L246 410.5L252 420.5L293 385L307.5 403.5L259.5 448.5L252 441.5L228.5 462L234 470.5L228.5 475.5L200 438L228.5 415L226 407.5Z" stroke="white"/>
    <path d="M314.5 391.5L299 373L307.5 364.5L326 385L314.5 391.5Z" stroke="white"/>
    <path d="M308.5 355L293.5 366.5L250.5 321.5L242.5 328L225 308L242.5 291.5L262 315L272 311L308.5 355Z" fill="#2D3436" stroke="white"/>
    <path d="M384.5 341L366 321L373.5 315L378.5 318L384.5 310.5L391.5 315L404 303L415.5 315L384.5 341Z" fill="#2D3436" stroke="white"/>
    <path d="M469.5 399.5L450.5 377.5L442.5 383L494 436.5L537 395L487.5 333.5L479 342.5L502.5 374L469.5 399.5Z" fill="#2D3436"/>
    <path d="M521.5 314.5L506 298L553.5 263H574.5L606 298V328.5L565.5 354L549.5 342.5L558 328.5L537 304L521.5 314.5Z" fill="#2D3436"/>
    <path d="M469.5 399.5L450.5 377.5L442.5 383L494 436.5L537 395L487.5 333.5L479 342.5L502.5 374L469.5 399.5Z" stroke="white"/>
    <path d="M521.5 314.5L506 298L553.5 263H574.5L606 298V328.5L565.5 354L549.5 342.5L558 328.5L537 304L521.5 314.5Z" stroke="white"/>
    <path d="M434.5 548.5L408.5 572.5L425 583L439 570L454 586.5L434.5 606.5L447.5 613.5L473.5 589.5L434.5 548.5Z" fill="#2D3436" stroke="white"/>
    <path d="M470 527L478 522.5L498 546L483.5 559L470 540.5V527Z" fill="#2D3436"/>
    <path d="M507 519L495 505.5L517.5 489L527.5 500L507 519Z" fill="#2D3436"/>
    <path d="M551.5 486.5L534 468.5L541.5 460.5L559.5 479L551.5 486.5Z" fill="#2D3436"/>
    <path d="M573.5 420L556 435L565 447L573.5 437.5L579.5 444L597 427.5L589.5 420L579.5 427.5L573.5 420Z" fill="#2D3436"/>
    <path d="M621.5 416L606 400L621.5 384.5L637.5 400L621.5 416Z" fill="#2D3436"/>
    <path d="M646 396.5L621.5 371.5L646 357.5L663 378.5L646 396.5Z" fill="#2D3436"/>
    <path d="M669 365L656 350L680 328L694.5 341L669 365Z" fill="#2D3436"/>
    <path d="M470 527L478 522.5L498 546L483.5 559L470 540.5V527Z" stroke="white"/>
    <path d="M507 519L495 505.5L517.5 489L527.5 500L507 519Z" stroke="white"/>
    <path d="M551.5 486.5L534 468.5L541.5 460.5L559.5 479L551.5 486.5Z" stroke="white"/>
    <path d="M573.5 420L556 435L565 447L573.5 437.5L579.5 444L597 427.5L589.5 420L579.5 427.5L573.5 420Z" stroke="white"/>
    <path d="M621.5 416L606 400L621.5 384.5L637.5 400L621.5 416Z" stroke="white"/>
    <path d="M646 396.5L621.5 371.5L646 357.5L663 378.5L646 396.5Z" stroke="white"/>
    <path d="M669 365L656 350L680 328L694.5 341L669 365Z" stroke="white"/>
    <path d="M173 478.5L152 496L163.5 507L173 499.5L213.5 542.5L201.5 554.5L213.5 565.5L234 545L173 478.5Z" fill="#2D3436"/>
    <path d="M253 645.5L224 612L209 621L243 655.5L253 645.5Z" fill="#2D3436"/>
    <path d="M227 609L218 600.5L240 578L249 588.5L227 609Z" fill="#2D3436"/>
    <path d="M260.5 588.5L253 594L271.5 616L280 609L260.5 588.5Z" fill="#2D3436"/>
    <path d="M275 621L253 637.5L260.5 649.5L285.5 630L275 621Z" fill="#2D3436"/>
    <path d="M122 436.5L111 445L143.5 482L153.5 472L122 436.5Z" fill="#2D3436"/>
    <path d="M111.5 558.5L121.5 543.5L162 564L152.5 579.5L111.5 558.5Z" fill="#2D3436"/>
    <path d="M58 534.5L68.5 519L107.5 543.5L98.5 558.5L58 534.5Z" fill="#2D3436"/>
    <path d="M132.5 333.5L93 289L96 259L137 226.5L173 267.5L181 295L132.5 333.5Z" fill="#2D3436"/>
  </g>
</svg>
