<svg width="900" height="900" viewBox="0 0 900 900" fill="none" xmlns="http://www.w3.org/2000/svg">
  <!-- Add GPS data to the GreenSpaces group -->
  <g id="GreenSpaces" 
     data-top-lat="38.0407552"
     data-bottom-lat="38.0322284"
     data-left-lon="-84.5081140"
     data-right-lon="-84.4972665">
    <!-- Your original paths with IDs -->
    <path id="Limestone_Lawn" d="M349 392.5L270 301L299.5 278L381.5 368.5L349 392.5Z" fill="#558B6E"/>
    <path id="Gatton_Bls" d="M209.5 418.5L152.5 358L133.5 373L155.5 403.5L130 430.5L162.5 462.5L209.5 418.5Z" fill="#558B6E"/>
    <path id="Ezra_Bldg" d="M476.5 678L360 782.5L428.5 853.5L538 753L476.5 678Z" fill="#558B6E"/>
    <path id="Art_Center" d="M284.359 383.006C284.381 382.996 284.386 382.999 284.375 383.014L296 388.709C281.033 400.806 252.207 425 252.207 425C252.207 425 247.772 417.742 245 414.113C258.157 403.83 283.937 383.618 284.375 383.014L284.359 383.006Z" fill="#558B6E" stroke="black"/>
    <path id="Art_Lib" d="M239.5 539L232.5 544L172 478.5L192.5 460.5L222.5 492.5L225.5 515C230.167 522.5 239.5 537.8 239.5 539Z" fill="#558B6E" stroke="black"/>
    <path id="Patterson_OT" d="M250 596L230.5 613.5L248.5 634L268 617.5L250 596Z" fill="#558B6E" stroke="black"/>
    <path id="Gatton_SC" d="M373.5 628.5L377 597L386.5 586L368 562L331 597L364.5 636L373.5 628.5Z" fill="#558B6E" stroke="black"/>
    <path id="Old_Engineer" d="M437 391L357 467L420 530L500 459L437 391Z" fill="#558B6E" stroke="black"/>
    <path id="President" d="M692 229L656.5 179L692 152.5L732 158.5L753 181.5L692 229Z" fill="#558B6E" stroke="black"/>
    <path id="Mining" d="M352 131L335 111L372 96.5L380.5 106L352 131Z" fill="#558B6E" stroke="black"/>
    <path id="Dorms" d="M374.5 129.5L321.5 173.5L389 269.5L391.5 289.5L424 318.5L447.5 298.5V282.5L374.5 129.5Z" fill="#558B6E" stroke="black"/>
    <path id="Funkhouser" d="M448 364.5L419.5 331L455.5 300.5L489.5 331L476.5 347.5L500.5 375.5L469.5 401L448 380V364.5Z" fill="#558B6E" stroke="black"/>
    <path id="FPAT_Alcove" d="M575.5 253.5L612 241.5L588 210H550.5L466 291L491 311L575.5 253.5Z" fill="#558B6E" stroke="black"/>
    <path id="WT_Young" d="M200 264.5V273L216 289.5L239 284.5L269.5 259.5C270.5 257 272.5 251.8 272.5 251C272.5 250.2 264.167 243 260 239.5H247.5L200 264.5Z" fill="#558B6E" stroke="black"/>
    <path id="Memorial" d="M171.5 268.5L136 228.5L153 216C162.5 230.667 181.4 260.1 181 260.5C180.6 260.9 174.5 266 171.5 268.5Z" fill="#558B6E" stroke="black"/>
    <path id="White_Hall" d="M134.5 154L155 117.5L180 88L214.5 55L241 31L273 2L290 29L294 42.5V63L290 80.5L283 101V123L280.5 140.5L273 149.5L259 164.5L241 181L221.5 197.5L202.5 212.5L183 219.5L172.5 215C159.833 194 134.5 152.4 134.5 154Z" fill="#558B6E" stroke="black"/>
  </g>
</svg>